<?xml version="1.0" encoding="UTF-8"?><svg width="90" height="66" viewBox="0 0 90 66" xmlns="http://www.w3.org/2000/svg" xmlns:xlink="http://www.w3.org/1999/xlink"><svg width="24" height="26" viewBox="0 0 24 26" id="src|assets|slice|paopao|top-01.svg" xmlns="http://www.w3.org/2000/svg"><defs><path id="aa" d="M0 0h30v30H0z"/></defs><g transform="translate(-3 -2)" fill="none" fill-rule="evenodd"><mask id="ab" fill="#fff"><use xlink:href="#aa"/></mask><g mask="url(#ab)"><g transform="translate(1)"><path fill="#F47F04" d="M6 12h16v16l-8-2.477L6 28z"/><circle fill="#F7B500" cx="14" cy="14" r="12"/><path d="M19 5.34C14.217 2.578 8.101 4.217 5.34 9 2.578 13.783 4.217 19.899 9 22.66L19 5.34z" fill="#FFF" opacity=".2"/><path fill="#FFF" fill-rule="nonzero" d="M14.028 9.032h2.184L14.224 19h-2.45l1.316-6.622h-1.414z"/></g></g></g></svg><svg width="24" height="26" viewBox="0 0 24 26" id="src|assets|slice|paopao|top-02.svg" x="24" xmlns="http://www.w3.org/2000/svg"><defs><path id="ba" d="M0 0h30v30H0z"/></defs><g transform="translate(-3 -2)" fill="none" fill-rule="evenodd"><mask id="bb" fill="#fff"><use xlink:href="#ba"/></mask><g mask="url(#bb)"><g transform="translate(1)"><path fill="#84ACCB" d="M6 12h16v16l-8-2.477L6 28z"/><circle fill="#BBD8EB" cx="14" cy="14" r="12"/><path d="M19 5.34C14.217 2.578 8.101 4.217 5.34 9 2.578 13.783 4.217 19.899 9 22.66L19 5.34z" fill="#FFF" opacity=".2"/><path d="M13.132 12.546h-2.03a3.864 3.864 0 0 1 .595-1.862c.117-.187.259-.369.427-.546.168-.177.366-.348.595-.511.229-.163.488-.301.777-.413.55-.224 1.073-.331 1.568-.322.383 0 .73.058 1.043.175.313.117.581.261.805.434.224.173.406.362.546.567.14.205.229.397.266.574.103.457.093.936-.028 1.435-.121.5-.378.959-.77 1.379.196-.196-.887.952-3.248 3.444l3.514.014-.672 1.848H9.898l.168-1.288 4.928-4.872c.13-.13.238-.266.322-.406a.807.807 0 0 0 0-.868.618.618 0 0 0-.259-.231.85.85 0 0 0-.371-.077c-.261 0-.471.04-.63.119-.159.08-.303.2-.434.364a2.38 2.38 0 0 0-.301.469c-.07.15-.133.34-.189.574z" fill="#FFF" fill-rule="nonzero"/></g></g></g></svg><svg width="24" height="26" viewBox="0 0 24 26" id="src|assets|slice|paopao|top-03.svg" x="48" xmlns="http://www.w3.org/2000/svg"><defs><path id="ca" d="M0 0h30v30H0z"/></defs><g transform="translate(-3 -2)" fill="none" fill-rule="evenodd"><mask id="cb" fill="#fff"><use xlink:href="#ca"/></mask><g mask="url(#cb)"><g transform="translate(1)"><path fill="#D98C53" d="M6 12h16v16l-8-2.477L6 28z"/><circle fill="#F1B487" cx="14" cy="14" r="12"/><path d="M19 5.34C14.217 2.578 8.101 4.217 5.34 9 2.578 13.783 4.217 19.899 9 22.66L19 5.34z" fill="#FFF" opacity=".2"/><path d="M12.362 9.228h5.208l-.196 1.386-2.17 2.016c.43.065.796.22 1.099.462.303.243.537.539.7.889.163.35.252.737.266 1.162.014.425-.054.856-.203 1.295-.177.523-.404.954-.679 1.295-.275.34-.574.611-.896.812-.322.2-.658.34-1.008.42-.35.08-.688.119-1.015.119-.597 0-1.097-.105-1.498-.315a2.908 2.908 0 0 1-.959-.77 2.824 2.824 0 0 1-.504-.966 3.318 3.318 0 0 1-.147-.903h1.89c.103.327.275.56.518.7.243.14.5.21.77.21.243 0 .467-.035.672-.105.205-.07.397-.212.574-.427.177-.215.282-.42.315-.616a1.947 1.947 0 0 0 0-.616 1.229 1.229 0 0 0-.301-.616c-.168-.196-.406-.308-.714-.336l-1.638-.028.238-1.582 1.904-1.638h-2.94l.714-1.848z" fill="#FFF" fill-rule="nonzero"/></g></g></g></svg><svg width="20" height="20" viewBox="0 0 20 20" id="src|assets|slice|paopao|top-04.svg" y="26" xmlns="http://www.w3.org/2000/svg"><defs><path id="da" d="M0 0h30v30H0z"/></defs><g transform="translate(-5 -4)" fill="none" fill-rule="evenodd"><mask id="db" fill="#fff"><use xlink:href="#da"/></mask><g mask="url(#db)"><g transform="translate(1)"><circle fill="#B2B4C2" cx="14" cy="14" r="10"/><path d="M19 5.34C14.217 2.578 8.101 4.217 5.34 9 2.578 13.783 4.217 19.899 9 22.66L19 5.34z" fill="#FFF" opacity=".2"/><path fill="#FFF" fill-rule="nonzero" d="M16.094 9.102l-3.906 6.608h1.456l.504-2.31h1.96l-.49 2.31h1.26l-.728 2.044h-1.036l-.28 1.316h-1.96l.28-1.316H9.136l.196-1.456 4.494-7.196z"/></g></g></g></svg><svg width="20" height="20" viewBox="0 0 20 20" id="src|assets|slice|paopao|top-05.svg" x="20" y="26" xmlns="http://www.w3.org/2000/svg"><defs><path id="ea" d="M0 0h30v30H0z"/></defs><g transform="translate(-5 -4)" fill="none" fill-rule="evenodd"><mask id="eb" fill="#fff"><use xlink:href="#ea"/></mask><g mask="url(#eb)"><g transform="translate(1)"><circle fill="#B2B4C2" cx="14" cy="14" r="10"/><path d="M19 5.34C14.217 2.578 8.101 4.217 5.34 9 2.578 13.783 4.217 19.899 9 22.66L19 5.34z" fill="#FFF" opacity=".2"/><path d="M13.006 9.228h4.732l-.7 1.862h-2.506l-.546 1.512c.28-.047.527-.065.742-.056.29.01.558.06.805.154.247.093.495.254.742.483.247.229.446.532.595.91.15.378.21.842.182 1.393a4.656 4.656 0 0 1-.336 1.505 3.545 3.545 0 0 1-.735 1.127 3.247 3.247 0 0 1-1.043.714 3.165 3.165 0 0 1-1.26.252c-.42 0-.807-.063-1.162-.189a2.47 2.47 0 0 1-.917-.567 2.544 2.544 0 0 1-.595-.938 3.462 3.462 0 0 1-.196-1.288h1.988c.019.15.063.278.133.385.07.107.161.194.273.259.112.065.236.114.371.147.135.033.268.049.399.049.327-.028.588-.147.784-.357.196-.21.313-.497.35-.861.037-.299-.005-.548-.126-.749a1.18 1.18 0 0 0-.49-.455 1.235 1.235 0 0 0-.56-.126c-.168 0-.317.026-.448.077a.836.836 0 0 0-.322.217h-2.086l1.932-5.46z" fill="#FFF" fill-rule="nonzero"/></g></g></g></svg><svg width="20" height="20" viewBox="0 0 20 20" id="src|assets|slice|paopao|top-06.svg" x="40" y="26" xmlns="http://www.w3.org/2000/svg"><defs><path id="fa" d="M0 0h30v30H0z"/></defs><g transform="translate(-5 -4)" fill="none" fill-rule="evenodd"><mask id="fb" fill="#fff"><use xlink:href="#fa"/></mask><g mask="url(#fb)"><g transform="translate(1)"><circle fill="#B2B4C2" cx="14" cy="14" r="10"/><path d="M19 5.34C14.217 2.578 8.101 4.217 5.34 9 2.578 13.783 4.217 19.899 9 22.66L19 5.34z" fill="#FFF" opacity=".2"/><path d="M14.302 9.186l2.492-.014-2.324 3.542c.737.13 1.346.492 1.827 1.085.48.593.684 1.318.609 2.177a3.93 3.93 0 0 1-.315 1.274 3.51 3.51 0 0 1-.665 1.015c-.27.285-.595.509-.973.672-.378.163-.8.245-1.267.245h-.203a1.65 1.65 0 0 1-.203-.014c-.597-.075-1.106-.264-1.526-.567a2.946 2.946 0 0 1-.952-1.127 3.223 3.223 0 0 1-.308-1.47c.01-.532.14-1.055.392-1.568l3.416-5.25zm-.42 5.362c-.401 0-.73.133-.987.399s-.385.6-.385 1.001c0 .205.037.383.112.532.075.15.168.27.28.364a1.356 1.356 0 0 0 .714.308c.392 0 .705-.119.938-.357.233-.238.373-.548.42-.931.019-.15.007-.299-.035-.448a1.263 1.263 0 0 0-.203-.413 1.166 1.166 0 0 0-.357-.315 1.082 1.082 0 0 0-.497-.14z" fill="#FFF" fill-rule="nonzero"/></g></g></g></svg><svg width="20" height="20" viewBox="0 0 20 20" id="src|assets|slice|paopao|top-07.svg" y="46" xmlns="http://www.w3.org/2000/svg"><defs><path id="ga" d="M0 0h30v30H0z"/></defs><g transform="translate(-5 -4)" fill="none" fill-rule="evenodd"><mask id="gb" fill="#fff"><use xlink:href="#ga"/></mask><g mask="url(#gb)"><g transform="translate(1)"><circle fill="#B2B4C2" cx="14" cy="14" r="10"/><path d="M19 5.34C14.217 2.578 8.101 4.217 5.34 9 2.578 13.783 4.217 19.899 9 22.66L19 5.34z" fill="#FFF" opacity=".2"/><path fill="#FFF" fill-rule="nonzero" d="M17.668 9.312l-.182 1.386-3.934 8.288h-2.478l3.472-7.49h-3.514l.798-2.184z"/></g></g></g></svg><svg width="18" height="17" viewBox="0 0 18 17" id="src|assets|slice|paopao|vote-check.svg" x="20" y="46" xmlns="http://www.w3.org/2000/svg"><path d="M9 17A8.5 8.5 0 1 1 9 0a8.5 8.5 0 0 1 0 17zm0-1A7.5 7.5 0 1 0 9 1a7.5 7.5 0 0 0 0 15z" fill="#00CC36" fill-rule="nonzero"/></svg><svg width="18" height="18" viewBox="0 0 18 18" id="src|assets|slice|paopao|vote-checked.svg" x="72" xmlns="http://www.w3.org/2000/svg"><g fill-rule="nonzero" fill="none"><path d="M9 17.5a8.5 8.5 0 1 1 0-17 8.5 8.5 0 0 1 0 17z" fill="#00CC36"/><path d="M12.201 6.874a.5.5 0 0 1 .708.707l-4.773 4.773-1.996-1.996-.494-.493a.5.5 0 1 1 .708-.707l1.782 1.782L12.2 6.874z" fill="#FFF"/></g></svg><svg width="14" height="14" viewBox="0 0 14 14" id="src|assets|slice|paopao|vote.svg" x="72" y="18" xmlns="http://www.w3.org/2000/svg"><defs><path id="ja" d="M0 0h14v14H0z"/></defs><g fill="none" fill-rule="evenodd"><mask id="jb" fill="#fff"><use xlink:href="#ja"/></mask><g mask="url(#jb)" fill="#FFF"><path d="M1.943 7.835a.333.333 0 0 0 0 .472c.244.244.48.289 1.077.248l.123-.009c.775-.052 1.205.024 1.639.457.433.434.51.865.458 1.643l-.008.12c-.04.598.004.834.246 1.076.13.13.342.13.472 0l5.337-5.337a.333.333 0 0 0 0-.47c-.245-.245-.48-.29-1.077-.249l-.124.008c-.775.053-1.205-.023-1.638-.457-.434-.433-.51-.864-.459-1.642l.009-.12c.04-.598-.005-.834-.247-1.076a.333.333 0 0 0-.471 0L1.943 7.835zm4.63-6.044c.52-.52 1.364-.52 1.885 0 .504.504.595.989.537 1.85l-.008.12c-.034.512 0 .701.168.87.167.167.356.2.864.166l.123-.009c.86-.058 1.346.034 1.852.539.52.52.52 1.365 0 1.886l-5.337 5.336c-.52.521-1.365.521-1.886 0-.504-.503-.595-.988-.537-1.85l.008-.12c.034-.51 0-.7-.167-.868-.168-.168-.356-.201-.865-.167l-.122.009c-.86.058-1.347-.034-1.852-.54a1.333 1.333 0 0 1 0-1.885l5.337-5.337z" fill-rule="nonzero"/><path d="M4.712 7.07L6.48 5.301a.417.417 0 1 1 .59.589L5.301 7.659a.417.417 0 0 1-.59-.59zm1.473 1.472l1.768-1.767a.417.417 0 1 1 .59.589L6.774 9.132a.417.417 0 0 1-.59-.59z"/></g></g></svg></svg>